<?xml version="1.0" encoding="UTF-8"?>
<svg width="247px" height="29px" viewBox="0 0 247 29" version="1.1" xmlns="http://www.w3.org/2000/svg" xmlns:xlink="http://www.w3.org/1999/xlink">
    <title>LemonChainLogo</title>
    <g id="RWA" stroke="none" stroke-width="1" fill="none" fill-rule="evenodd">
        <g id="Marketplace-Desktop" transform="translate(-100, -71)">
            <g id="LemonChainLogo" transform="translate(100, 71)">
                <polygon id="Path" fill="#000000" fill-rule="nonzero" points="0 0 9.79802014 0 9.79802014 20.9615764 21 20.9615764 21 29 0 29"></polygon>
                <polygon id="Path" fill="#000000" fill-rule="nonzero" points="19 0 42 0 42 9.03112604 28.8049222 9.03112604 28.8049222 11.43576 40.5201874 11.43576 40.5201874 17.5675889 28.8049222 17.5675889 28.8049222 19.9687922 42 19.9687922 42 29 19 29"></polygon>
                <polygon id="Path" fill="#000000" fill-rule="nonzero" points="42 0 54.2119038 0 58.9985491 14.7507431 63.7851945 0 76 0 76 29 66.4267093 29 66.4267093 14.7060761 63.6101252 29 54.3519592 29 51.5732907 14.7060761 51.5732907 29 42 29"></polygon>
                <path d="M90.5014648,0 C92.5149278,0 94.397923,0.304354903 96.1506455,0.91222493 C97.9047353,1.51841584 99.4451546,2.42141275 100.771318,3.62205631 C102.097285,4.82103629 103.133216,6.32352096 103.880086,8.12953252 C104.62637,9.93636478 105,12.0391823 105,14.437963 C105,16.8375643 104.62637,18.9470806 103.880086,20.7665117 C103.133216,22.5867636 102.097285,24.1035108 100.771318,25.3174852 C99.4451546,26.5316814 97.9047353,27.4497593 96.1506455,28.0710534 C94.397923,28.6896857 92.5149278,29 90.5014648,29 C88.5108532,29 86.6389908,28.6896857 84.8849011,28.0710534 C83.1321785,27.4497593 81.5858999,26.5316814 80.2464558,25.3174852 C78.9085742,24.1035108 77.8661984,22.5867636 77.1199143,20.7665117 C76.3728491,18.9470806 76,16.8375643 76,14.437963 C76,12.0391823 76.3728491,9.93636478 77.1199143,8.12953252 C77.8661984,6.32352096 78.9085742,4.82103629 80.2464558,3.62205631 C81.5858999,2.42141275 83.1321785,1.51841584 84.8849011,0.91222493 C86.6389908,0.304354903 88.5108532,0 90.5014648,0 Z M90.5014648,8.45149194 C89.1731535,8.45149194 88.0231612,8.95118892 87.0507068,9.95062726 C86.0798149,10.9483576 85.5950526,12.4441436 85.5950526,14.437963 C85.5950526,16.432603 86.0798149,17.9359306 87.0507068,18.9487664 C88.0231612,19.9599385 89.1731535,20.4646706 90.5014648,20.4646706 C91.8276278,20.4646706 92.9813309,19.9599385 93.9639415,18.9487664 C94.9483099,17.9359306 95.4402988,16.432603 95.4402988,14.437963 C95.4402988,12.4441436 94.9483099,10.9483576 93.9639415,9.95062726 C92.9813309,8.95118892 91.8276278,8.45149194 90.5014648,8.45149194 Z" id="Shape" fill="#000000" fill-rule="nonzero"></path>
                <polygon id="Path" fill="#000000" fill-rule="nonzero" points="105 0 114.438271 0 122.558678 14.376307 122.558678 0 132 0 132 29 122.558678 29 114.438271 14.623634 114.438271 29 105 29"></polygon>
                <path d="M141.741015,0 C143.856428,0 145.751726,0.16312867 147.428314,0.487703814 C149.1039,0.810598095 150.294395,1.16208217 151,1.54047429 L151,11.5199165 C149.954511,10.4906884 148.653659,9.72633626 147.098845,9.22601485 C145.54323,8.72653877 144.013451,8.47596652 142.508508,8.47596652 C141.778869,8.47596652 141.031605,8.58528045 140.266315,8.80221764 C139.500224,9.01748642 138.789412,9.36224571 138.132877,9.83480485 C137.477945,10.3082316 136.943784,10.9237397 136.531196,11.6813737 C136.118008,12.4398308 135.911714,13.3723582 135.911714,14.4797789 C135.911714,15.9395224 136.263015,17.1091858 136.966416,17.9878793 C137.67122,18.8674404 138.533247,19.5098655 139.5531,19.9151545 C140.574554,20.3213111 141.559757,20.5239445 142.508508,20.5239445 C144.013451,20.5239445 145.54323,20.2674772 147.098845,19.7537196 C148.653659,19.240785 149.954511,18.4823279 151,17.4799945 L151,27.4190191 C150.294395,27.7983032 149.1039,28.1573441 147.428314,28.4954742 C145.751726,28.8318247 143.856428,29 141.741015,29 C138.753161,29 136.074947,28.460104 133.705773,27.3787549 C131.338202,26.2982955 129.461529,24.6828342 128.075956,22.531926 C126.691985,20.3818408 126,17.697777 126,14.4797789 C126,11.2626039 126.691985,8.57938541 128.075956,6.43096867 C129.461529,4.28086128 131.338202,2.67227379 133.705773,1.60437866 C136.074947,0.534792888 138.753161,0 141.741015,0 Z" id="Path" fill="#F1FF00" fill-rule="nonzero"></path>
                <polygon id="Path" fill="#F1FF00" fill-rule="nonzero" points="166.526015 0 176 0 176 29 166.526015 29 166.526015 19.1822027 158.439271 19.3471031 158.439271 29 149 29 149 0 158.439271 0 158.439271 11.3121518 166.526015 11.3121518"></polygon>
                <polygon id="Path" fill="#F1FF00" fill-rule="nonzero" points="211 29 201.379026 29 194.518565 11.3121421 187.620585 29 178 29 189.283698 0 199.716885 0"></polygon>
                <polygon id="Path" fill="#F1FF00" fill-rule="nonzero" points="218 29 208 29 208 0 218 0"></polygon>
                <polygon id="Path" fill="#F1FF00" fill-rule="nonzero" points="247 29 237.52568 29 229.438078 14.6236946 229.438078 29 220 29 220 0 229.438078 0 237.52568 14.376344 237.52568 0 247 0"></polygon>
            </g>
        </g>
    </g>
</svg>