<?xml version="1.0" encoding="UTF-8"?>
<svg width="30px" height="30px" viewBox="0 0 30 30" version="1.1" xmlns="http://www.w3.org/2000/svg" xmlns:xlink="http://www.w3.org/1999/xlink">
    <title>Group</title>
    <g id="RWA" stroke="none" stroke-width="1" fill="none" fill-rule="evenodd">
        <g id="Marketplace-Desktop" transform="translate(-115, -805)">
            <g id="Group-5-Copy-7" transform="translate(100, 790)">
                <g id="Group-4" transform="translate(8, 8)">
                    <g id="Group" transform="translate(7, 7)">
                        <g transform="translate(1.2382, 3.765)" id="Path" stroke="#0C0C0C" stroke-linecap="round" stroke-linejoin="round">
                            <path d="M10.0955299,13.1975 L7.79677986,10.14125 L9.48427986,9.575 C9.79052986,9.4725 10.1267799,9.52 10.3917799,9.70375 L11.8567799,10.715 L15.3805299,9.16375 L11.6992799,4.5 L14.6967799,3.8625 L19.5380299,7.65375 L24.7005299,5.59625 C25.9642799,5.0925 27.3592799,5.935 27.5005299,7.2875 L27.5005299,7.2875 C27.5955299,8.185 27.0917799,9.04 26.2592799,9.3925 L17.0055299,13.31 C16.7680299,13.41 16.5155299,13.465 16.2580299,13.47125 L10.9405299,13.60375 C10.6092799,13.615 10.2942799,13.4625 10.0955299,13.1975 Z" stroke-width="1.87499999"></path>
                            <path d="M23.8055299,5.985 C21.9992799,2.43625 18.3217799,0 14.0680299,0 C8.03052986,0 3.13677986,4.89625 3.13677986,10.9375 C3.13677986,16.9775 8.03052986,21.875 14.0680299,21.875 C20.1055299,21.875 24.9992799,16.97875 24.9992799,10.9375 C24.9992799,10.61125 24.9780299,10.29125 24.9505299,9.9725" stroke-width="1.87249999"></path>
                            <path d="M3.16177986,11.67125 C0.831779863,13.38 -0.429470137,15.27625 0.133029863,16.60125 C0.930529863,18.57625 5.43052986,18.62 10.1842799,16.69875" stroke-width="1.87249999"></path>
                        </g>
                        <polygon id="Path" points="0 0 30 0 30 30 0 30"></polygon>
                    </g>
                </g>
            </g>
        </g>
    </g>
</svg>