<?xml version="1.0" encoding="UTF-8"?>
<svg width="30px" height="30px" viewBox="0 0 30 30" version="1.1" xmlns="http://www.w3.org/2000/svg" xmlns:xlink="http://www.w3.org/1999/xlink">
    <title>Group</title>
    <g id="RWA" stroke="none" stroke-width="1" fill="none" fill-rule="evenodd">
        <g id="Marketplace-Desktop" transform="translate(-482, -805)">
            <g id="Group-5-Copy-8" transform="translate(467, 790)">
                <g id="Group-4" transform="translate(8, 8)">
                    <g id="Path" transform="translate(7, 7)">
                        <polygon points="0 0 30 0 30 30 0 30"></polygon>
                        <path d="M11.875,27.5 C7.38875,27.5 3.75,23.8625 3.75,19.375 C3.75,14.8875 7.38875,11.25 11.875,11.25 C16.3625,11.25 20,14.8875 20,19.375 C20,23.8625 16.3625,27.5 11.875,27.5" stroke="#0C0C0C" stroke-width="1.87499999" stroke-linecap="round" stroke-linejoin="round"></path>
                        <path d="M10.18,11.43 C10.96,7.7575 14.22,5 18.125,5 C22.6125,5 26.25,8.6375 26.25,13.125 C26.25,17.03125 23.49375,20.29 19.82,21.07" stroke="#0C0C0C" stroke-width="1.87499999" stroke-linecap="round" stroke-linejoin="round"></path>
                    </g>
                </g>
            </g>
        </g>
    </g>
</svg>