<?xml version="1.0" encoding="UTF-8"?>
<svg width="30px" height="30px" viewBox="0 0 30 30" version="1.1" xmlns="http://www.w3.org/2000/svg" xmlns:xlink="http://www.w3.org/1999/xlink">
    <title>Group</title>
    <g id="RWA" stroke="none" stroke-width="1" fill="none" fill-rule="evenodd">
        <g id="Marketplace-Desktop" transform="translate(-307, -735)">
            <g id="Group-5-Copy-5" transform="translate(292, 720)">
                <g id="Group-4" transform="translate(8, 8)">
                    <g id="Group" transform="translate(7, 7)">
                        <path d="M4.375,23.75 L5.25,23.75 C6.71819567,23.7506725 8.15339415,24.1855811 9.375,25 L9.375,25 C10.5966058,25.8144189 12.0318043,26.2493275 13.5,26.25 L16.5,26.25 C17.9681956,26.2493275 19.4033941,25.8144189 20.625,25 L20.625,25 C21.8466059,24.1855811 23.2818044,23.7506725 24.75,23.75 L25.625,23.75 C26.6605339,23.75 27.5,22.9105339 27.5,21.875 L27.5,21.875 C27.5,20.8394661 26.6605339,20 25.625,20 L4.375,20 C3.3394661,20 2.5,20.8394661 2.5,21.875 L2.5,21.875 C2.5,22.9105339 3.3394661,23.75 4.375,23.75 Z" id="Path" stroke="#0C0C0C" stroke-width="1.87421908" stroke-linecap="round" stroke-linejoin="round"></path>
                        <path d="M8.75,7.25 L8.75,10 C8.75,11.0355339 9.5894661,11.875 10.625,11.875 L10.625,11.875 C11.6605339,11.875 12.5,11.0355339 12.5,10 L12.5,7.5 C12.5,6.11928812 13.6192881,5 15,5 L15,5 C16.3807119,5 17.5,6.11928812 17.5,7.5 L17.5,10 C17.5,11.0355339 18.3394661,11.875 19.375,11.875 L19.375,11.875 C20.4105339,11.875 21.25,11.0355339 21.25,10 L21.25,7.25" id="Path" stroke="#0C0C0C" stroke-width="1.87421908" stroke-linecap="round" stroke-linejoin="round"></path>
                        <path d="M17.165,6.25 L17.5,6.25 C21.6421356,6.25 25,9.60786437 25,13.75 L25,20" id="Path" stroke="#0C0C0C" stroke-width="1.87421908" stroke-linecap="round" stroke-linejoin="round"></path>
                        <path d="M12.835,6.25 L12.5,6.25 C8.35786437,6.25 5,9.60786437 5,13.75 L5,20" id="Path" stroke="#0C0C0C" stroke-width="1.87421908" stroke-linecap="round" stroke-linejoin="round"></path>
                        <rect id="Rectangle" x="0" y="0" width="30" height="30"></rect>
                    </g>
                </g>
            </g>
        </g>
    </g>
</svg>